<svg width="34" height="32" viewBox="0 0 34 32" fill="none" xmlns="http://www.w3.org/2000/svg">
<path d="M10.203 32C9.26776 32 8.46739 31.6869 7.80192 31.0608C7.13532 30.4336 6.80202 29.68 6.80202 28.8C6.80202 27.92 7.13532 27.1664 7.80192 26.5392C8.46739 25.9131 9.26776 25.6 10.203 25.6C11.1383 25.6 11.9387 25.9131 12.6042 26.5392C13.2707 27.1664 13.604 27.92 13.604 28.8C13.604 29.68 13.2707 30.4336 12.6042 31.0608C11.9387 31.6869 11.1383 32 10.203 32ZM27.2081 32C26.2728 32 25.4724 31.6869 24.807 31.0608C24.1404 30.4336 23.8071 29.68 23.8071 28.8C23.8071 27.92 24.1404 27.1664 24.807 26.5392C25.4724 25.9131 26.2728 25.6 27.2081 25.6C28.1434 25.6 28.9443 25.9131 29.6109 26.5392C30.2764 27.1664 30.6091 27.92 30.6091 28.8C30.6091 29.68 30.2764 30.4336 29.6109 31.0608C28.9443 31.6869 28.1434 32 27.2081 32ZM10.203 24C8.92766 24 7.96404 23.4731 7.31218 22.4192C6.66032 21.3664 6.63197 20.32 7.22715 19.28L9.52283 15.36L3.40101 3.2H1.65799C1.17618 3.2 0.779399 3.0464 0.467639 2.7392C0.15588 2.43307 0 2.05333 0 1.6C0 1.14667 0.163249 0.7664 0.489746 0.4592C0.815109 0.153067 1.2187 0 1.70051 0H4.46383C4.77559 0 5.07318 0.0800002 5.35659 0.24C5.64001 0.4 5.85258 0.626667 5.99428 0.92L7.14213 3.2H32.2246C32.9898 3.2 33.5141 3.46667 33.7976 4C34.081 4.53333 34.0668 5.09333 33.755 5.68L27.7182 15.92C27.4065 16.4533 26.9955 16.8667 26.4854 17.16C25.9752 17.4533 25.3942 17.6 24.7424 17.6H12.0736L10.203 20.8H28.9511C29.4329 20.8 29.8297 20.9531 30.1415 21.2592C30.4532 21.5664 30.6091 21.9467 30.6091 22.4C30.6091 22.8533 30.4459 23.2331 30.1194 23.5392C29.794 23.8464 29.3904 24 28.9086 24H10.203Z" fill="#FF0084"/>
</svg>
